<svg width="338" height="50" viewBox="0 0 338 50" fill="none" xmlns="http://www.w3.org/2000/svg">
<g clip-path="url(#clip0_2857_99)">
<path d="M59.7786 39.4408C57.1411 37.8847 54.9842 35.6294 53.5459 32.9239C51.9926 30.0273 51.2014 26.7825 51.2467 23.4952C51.1939 20.2204 51.9655 16.985 53.4905 14.0873C54.9214 11.3764 57.08 9.11934 59.7232 7.57035C62.4581 5.9908 65.5689 5.18111 68.726 5.22703C71.4535 5.18042 74.1506 5.80662 76.5792 7.05038C78.8492 8.23938 80.7616 10.0127 82.1194 12.1877C83.5526 14.5203 84.3898 17.1705 84.5571 19.904L77.6803 20.4031C77.311 17.3804 76.3483 15.0417 74.7925 13.387C74.0262 12.5755 73.0967 11.9359 72.0652 11.5104C71.0338 11.085 69.924 10.8834 68.8091 10.9189C66.8647 10.893 64.9595 11.4666 63.352 12.562C61.7063 13.7112 60.3964 15.2786 59.557 17.1031C58.6074 19.1322 58.1337 21.3518 58.1719 23.5923C58.1381 25.8167 58.6119 28.0195 59.557 30.0329C60.3933 31.8385 61.7023 33.3837 63.3451 34.5046C64.9609 35.5847 66.8663 36.148 68.8091 36.12C70.305 36.1768 71.7865 35.8093 73.0828 35.0599C74.3791 34.3104 75.4375 33.2095 76.136 31.884C76.9907 30.3174 77.5494 28.6064 77.7842 26.8369L84.6609 27.336C84.4885 30.0208 83.6508 32.6204 82.2233 34.8998C80.8586 37.0514 78.9464 38.8006 76.6831 39.9677C74.2654 41.191 71.5869 41.8072 68.8783 41.7634C65.6904 41.8333 62.5439 41.0302 59.7786 39.4408Z" fill="#5C59ED"/>
<path d="M94.1072 40.0647C92.1514 38.9576 90.5441 37.3246 89.4673 35.3504C88.3284 33.2451 87.7534 30.8805 87.7983 28.4868C87.7534 26.0931 88.3284 23.7285 89.4673 21.6232C90.5441 19.649 92.1514 18.016 94.1072 16.9089C96.1625 15.7942 98.463 15.2104 100.8 15.2104C103.138 15.2104 105.438 15.7942 107.494 16.9089C109.437 18.0233 111.033 19.6552 112.106 21.6232C113.245 23.7285 113.82 26.0931 113.775 28.4868C113.82 30.8805 113.245 33.2451 112.106 35.3504C111.033 37.3185 109.437 38.9503 107.494 40.0647C105.438 41.1794 103.138 41.7632 100.8 41.7632C98.463 41.7632 96.1625 41.1794 94.1072 40.0647ZM104.052 35.2117C105.01 34.5485 105.756 33.6213 106.199 32.5425C106.721 31.2679 106.976 29.899 106.947 28.5215C106.976 27.1439 106.721 25.7751 106.199 24.5004C105.756 23.4216 105.01 22.4945 104.052 21.8312C103.084 21.2112 101.96 20.8816 100.811 20.8816C99.6621 20.8816 98.5374 21.2112 97.5698 21.8312C96.6154 22.4969 95.8726 23.4235 95.43 24.5004C94.9073 25.7751 94.6527 27.1439 94.682 28.5215C94.6574 29.8874 94.9119 31.244 95.43 32.5079C95.8726 33.5848 96.6154 34.5114 97.5698 35.177C98.5388 35.7931 99.663 36.1202 100.811 36.1202C101.959 36.1202 103.083 35.7931 104.052 35.177V35.2117Z" fill="#5C59ED"/>
<path d="M117.32 16.0079H124.045V40.9663H117.32V16.0079ZM132.597 22.296C132.254 21.8243 131.799 21.445 131.273 21.1922C130.748 20.9394 130.167 20.8208 129.585 20.847C128.783 20.8378 127.993 21.0351 127.289 21.42C126.586 21.8049 125.993 22.3644 125.568 23.0447C124.482 24.7733 123.95 26.7936 124.045 28.8337L122.75 26.3379C122.713 24.3368 123.112 22.3518 123.92 20.5212C124.63 18.9318 125.772 17.5745 127.216 16.6041C128.679 15.6629 130.388 15.1801 132.126 15.2175C133.717 15.1687 135.284 15.6117 136.614 16.4862C137.899 17.4112 138.88 18.6973 139.433 20.1815C140.123 22.0577 140.452 24.0479 140.402 26.0467V40.9663H133.657V26.3379C133.744 24.9118 133.373 23.4953 132.597 22.296Z" fill="#5C59ED"/>
<path d="M142.549 16.0079H162.14V21.6443H142.549V16.0079ZM151.697 40.0927C150.494 39.5461 149.508 38.6144 148.892 37.4444C148.214 36.0567 147.889 34.5233 147.944 32.9796V7.97266H154.675V32.3279C154.617 32.7347 154.655 33.1494 154.785 33.5391C154.914 33.9289 155.133 34.2831 155.423 34.5736C155.714 34.8642 156.067 35.0831 156.457 35.2132C156.846 35.3432 157.26 35.3808 157.667 35.3229H162.154V40.9663H156.42C154.801 41.022 153.189 40.7239 151.697 40.0927Z" fill="#5C59ED"/>
<path d="M165.083 16.0078H171.815V25.291L170.914 28.7574C170.871 26.4241 171.122 24.0946 171.662 21.8245C172.011 20.2198 172.767 18.7322 173.858 17.5053C174.303 17.036 174.841 16.6633 175.437 16.4105C176.032 16.1577 176.673 16.03 177.32 16.0355H181.912V21.672H177.819C176.57 21.6098 175.33 21.9159 174.252 22.5525C173.313 23.2222 172.642 24.2055 172.362 25.3256C171.925 27.044 171.731 28.8154 171.787 30.5877V40.987H165.056L165.083 16.0078Z" fill="#5C59ED"/>
<path d="M188.221 40.0926C186.24 39.0077 184.608 37.3795 183.519 35.399C182.359 33.2759 181.774 30.8857 181.822 28.4661C181.785 26.0978 182.332 23.7568 183.415 21.6511C184.433 19.6917 185.981 18.0581 187.882 16.9367C189.837 15.7895 192.07 15.202 194.336 15.2382C196.603 15.194 198.838 15.7821 200.79 16.9367C202.676 18.0708 204.207 19.7112 205.209 21.6719C206.295 23.8186 206.842 26.1984 206.801 28.6048V30.5044H188.72C188.701 31.5297 188.968 32.5401 189.488 33.4231C190.01 34.2787 190.761 34.9706 191.656 35.4198C192.648 35.9063 193.744 36.1443 194.848 36.1131C195.971 36.1443 197.081 35.8712 198.062 35.3227C198.927 34.8327 199.597 34.059 199.959 33.1319L206.739 33.6311C206.575 34.8216 206.161 35.9638 205.525 36.983C204.889 38.0021 204.045 38.8752 203.048 39.5449C200.736 41.0875 197.999 41.8636 195.222 41.7634C192.785 41.8116 190.375 41.2365 188.221 40.0926ZM199.135 23.1208C198.659 22.3925 197.987 21.8134 197.196 21.45C196.29 21.0315 195.3 20.8252 194.301 20.8469C193.297 20.8275 192.301 21.0336 191.386 21.45C190.583 21.8086 189.899 22.388 189.412 23.1208C188.943 23.8572 188.702 24.7159 188.72 25.589H199.835C199.853 24.7148 199.61 23.8551 199.135 23.1208Z" fill="#5C59ED"/>
<path d="M215.541 40.0925C213.547 39.0129 211.903 37.3842 210.804 35.3989C209.649 33.274 209.064 30.8851 209.108 28.466C209.069 26.0968 209.619 23.755 210.707 21.651C211.72 19.6898 213.266 18.0555 215.167 16.9366C217.117 15.7835 219.344 15.1865 221.608 15.2103C223.875 15.1662 226.11 15.7543 228.062 16.9089C229.945 18.044 231.473 19.6843 232.473 21.644C233.566 23.789 234.115 26.1697 234.073 28.5769V30.4765H216.068C216.047 31.5031 216.316 32.5145 216.843 33.3953C217.363 34.2526 218.114 34.9449 219.011 35.392C220.003 35.8793 221.099 36.1173 222.203 36.0853C223.336 36.1194 224.457 35.8437 225.444 35.288C226.308 34.7976 226.976 34.0237 227.335 33.0972L234.122 33.5963C233.956 34.7864 233.542 35.9282 232.906 36.9472C232.27 37.9661 231.426 38.8394 230.431 39.5101C228.116 41.0528 225.377 41.8289 222.598 41.7286C220.145 41.7964 217.715 41.233 215.541 40.0925ZM226.455 23.1207C225.976 22.3921 225.302 21.8132 224.509 21.4499C223.605 21.0319 222.618 20.8257 221.622 20.8468C220.615 20.8273 219.616 21.0334 218.699 21.4499C217.909 21.813 217.236 22.3921 216.76 23.1207C216.294 23.8532 216.053 24.7066 216.068 25.575H227.148C227.162 24.7066 226.922 23.8532 226.455 23.1207Z" fill="#5C59ED"/>
<path d="M237.681 6.02441H244.412V40.9662H237.681V6.02441ZM247.805 40.363C246.311 39.4016 245.132 38.0229 244.412 36.3974C243.584 34.5381 243.175 32.519 243.214 30.4837V26.4903C243.175 24.4549 243.584 22.4359 244.412 20.5766C245.122 18.9429 246.304 17.5592 247.806 16.603C249.308 15.6468 251.061 15.1619 252.84 15.2105C254.841 15.1806 256.801 15.7742 258.449 16.9091C260.141 18.1007 261.476 19.7303 262.314 21.6234C263.27 23.7827 263.743 26.1254 263.699 28.487C263.743 30.8486 263.27 33.1912 262.314 35.3505C261.476 37.2437 260.141 38.8732 258.449 40.0649C256.799 41.1968 254.84 41.7901 252.84 41.7635C251.061 41.7978 249.311 41.311 247.805 40.363ZM253.886 35.1772C254.846 34.5109 255.598 33.5853 256.053 32.5081C256.591 31.2467 256.855 29.8857 256.829 28.5147C256.855 27.1437 256.591 25.7827 256.053 24.5214C255.602 23.434 254.85 22.4983 253.886 21.8245C252.918 21.2044 251.793 20.8749 250.645 20.8749C249.496 20.8749 248.371 21.2044 247.404 21.8245C246.439 22.4983 245.687 23.434 245.236 24.5214C244.703 25.7741 244.438 27.1253 244.46 28.487C244.43 29.8673 244.695 31.2382 245.236 32.5081C245.687 33.5955 246.439 34.5312 247.404 35.2049C248.373 35.821 249.497 36.1481 250.645 36.1481C251.793 36.1481 252.917 35.821 253.886 35.2049V35.1772Z" fill="#5C59ED"/>
<path d="M270.638 40.4948C269.353 39.5716 268.374 38.2846 267.826 36.7995C267.13 34.9247 266.799 32.9338 266.85 30.9343V16.0078H273.581V30.6293C273.497 32.0591 273.873 33.4783 274.655 34.6781C275.002 35.1541 275.463 35.5354 275.995 35.7873C276.527 36.0392 277.114 36.1536 277.702 36.1201C278.503 36.1307 279.293 35.9347 279.996 35.551C280.7 35.1674 281.293 34.6089 281.718 33.9293C282.805 32.2008 283.337 30.1805 283.242 28.1404L284.537 30.6293C284.575 32.6304 284.176 34.6157 283.367 36.446C282.66 38.0377 281.517 39.3961 280.07 40.3631C278.609 41.3069 276.899 41.79 275.16 41.7496C273.559 41.8098 271.979 41.3713 270.638 40.4948ZM283.242 16.0078H289.973V40.9662H283.242V16.0078Z" fill="#5C59ED"/>
<path d="M291.781 16.0079H311.38V21.6443H291.781V16.0079ZM300.93 40.0927C299.723 39.5469 298.731 38.6154 298.111 37.4444C297.436 36.056 297.112 34.5227 297.169 32.9796V7.97266H303.9V32.3279C303.843 32.7347 303.88 33.1494 304.01 33.5391C304.14 33.9289 304.359 34.2831 304.649 34.5736C304.939 34.8642 305.293 35.0831 305.682 35.2132C306.072 35.3432 306.486 35.3808 306.892 35.3229H311.38V40.9663H305.646C304.029 41.0208 302.42 40.7227 300.93 40.0927Z" fill="#5C59ED"/>
<path d="M319.454 40.0926C317.46 39.013 315.816 37.3843 314.718 35.399C313.562 33.2741 312.977 30.8852 313.021 28.4661C312.982 26.0969 313.532 23.7551 314.621 21.6511C315.633 19.69 317.179 18.0556 319.08 16.9367C321.036 15.7905 323.269 15.203 325.535 15.2382C327.804 15.1938 330.041 15.7819 331.996 16.9367C333.877 18.0742 335.405 19.7139 336.407 21.6719C337.497 23.8174 338.044 26.1981 338 28.6048V30.5044H319.946C319.926 31.5309 320.195 32.5424 320.722 33.4231C321.239 34.2819 321.991 34.9747 322.889 35.4198C323.881 35.9072 324.977 36.1451 326.082 36.1131C327.214 36.1472 328.335 35.8716 329.323 35.3158C330.185 34.8233 330.852 34.0501 331.213 33.125L337.993 33.6242C337.829 34.8146 337.415 35.9569 336.779 36.9761C336.143 37.9952 335.299 38.8683 334.302 39.5379C331.99 41.0806 329.253 41.8567 326.477 41.7565C324.032 41.8097 321.615 41.237 319.454 40.0926ZM330.375 23.1209C329.896 22.3923 329.222 21.8133 328.429 21.45C327.523 21.0315 326.533 20.8252 325.535 20.8469C324.53 20.8276 323.534 21.0337 322.619 21.45C321.813 21.8065 321.126 22.3862 320.639 23.1209C320.169 23.8519 319.928 24.7063 319.946 25.5751H331.068C331.082 24.7068 330.842 23.8533 330.375 23.1209Z" fill="#5C59ED"/>
<path d="M29.4046 31.9743L33.2342 49.9998C29.4217 47.4491 26.2965 43.9964 24.1355 39.9477C21.9744 35.8989 20.8442 31.379 20.845 26.7885C20.845 27.0103 20.845 27.2322 20.845 27.4818C20.845 27.2599 20.845 27.0381 20.845 26.7885C20.8462 28.5285 20.6839 30.2647 20.3602 31.9743C19.6726 35.6203 18.2657 39.0924 16.2216 42.1875C14.1775 45.2825 11.5374 47.9384 8.45571 49.9998L12.2854 31.9743H0L15.6164 16.3406H4.49448L13.2134 7.61211L15.2909 5.53225L18.5943 2.21833L20.838 -0.0209961L23.0818 2.21833L26.3851 5.53225L28.4627 7.61211L37.1816 16.3406H26.0597L41.6761 31.9743H29.4046Z" fill="#5C59ED"/>
</g>
<defs>
<clipPath id="clip0_2857_99">
<rect width="338" height="50" fill="white"/>
</clipPath>
</defs>
</svg>
