<svg width="339" height="50" viewBox="0 0 339 50" fill="none" xmlns="http://www.w3.org/2000/svg">
<path d="M59.8446 39.4408C57.2043 37.8847 55.045 35.6294 53.605 32.9239C52.0501 30.0273 51.258 26.7825 51.3033 23.4952C51.2505 20.2204 52.023 16.985 53.5496 14.0873C54.9821 11.3764 57.1431 9.11934 59.7892 7.57035C62.5271 5.9908 65.6413 5.18111 68.8019 5.22703C71.5325 5.18042 74.2325 5.80662 76.6638 7.05038C78.9364 8.23938 80.8509 10.0127 82.2101 12.1877C83.6449 14.5203 84.4831 17.1705 84.6505 19.904L77.7662 20.4031C77.3964 17.3804 76.4327 15.0417 74.8751 13.387C74.108 12.5755 73.1774 11.9359 72.1449 11.5104C71.1124 11.085 70.0013 10.8834 68.8851 10.9189C66.9386 10.893 65.0313 11.4666 63.422 12.562C61.7745 13.7112 60.4631 15.2786 59.6228 17.1031C58.6722 19.1322 58.1979 21.3518 58.2362 23.5923C58.2024 25.8167 58.6766 28.0195 59.6228 30.0329C60.46 31.8385 61.7705 33.3837 63.4151 34.5046C65.0327 35.5847 66.9403 36.148 68.8851 36.12C70.3827 36.1768 71.8658 35.8093 73.1636 35.0599C74.4613 34.3104 75.5209 33.2095 76.2201 31.884C77.0758 30.3174 77.6351 28.6064 77.8701 26.8369L84.7545 27.336C84.5819 30.0208 83.7432 32.6204 82.3141 34.8998C80.9479 37.0514 79.0336 38.8006 76.7678 39.9677C74.3475 41.191 71.666 41.8072 68.9545 41.7634C65.763 41.8333 62.6131 41.0302 59.8446 39.4408Z" fill="#0000EE"/>
<path d="M94.2109 40.0647C92.2529 38.9576 90.6438 37.3246 89.5659 35.3504C88.4257 33.2451 87.8501 30.8805 87.895 28.4868C87.8501 26.0931 88.4257 23.7285 89.5659 21.6232C90.6438 19.649 92.2529 18.016 94.2109 16.9089C96.2684 15.7942 98.5715 15.2104 100.912 15.2104C103.252 15.2104 105.555 15.7942 107.612 16.9089C109.557 18.0233 111.156 19.6552 112.229 21.6232C113.37 23.7285 113.945 26.0931 113.9 28.4868C113.945 30.8805 113.37 33.2451 112.229 35.3504C111.156 37.3185 109.557 38.9503 107.612 40.0647C105.555 41.1794 103.252 41.7632 100.912 41.7632C98.5715 41.7632 96.2684 41.1794 94.2109 40.0647ZM104.167 35.2117C105.126 34.5485 105.872 33.6213 106.316 32.5425C106.839 31.2679 107.094 29.899 107.064 28.5215C107.094 27.1439 106.839 25.7751 106.316 24.5004C105.872 23.4216 105.126 22.4945 104.167 21.8312C103.198 21.2112 102.072 20.8816 100.922 20.8816C99.7719 20.8816 98.6459 21.2112 97.6773 21.8312C96.7219 22.4969 95.9782 23.4235 95.5351 24.5004C95.0118 25.7751 94.7569 27.1439 94.7863 28.5215C94.7617 29.8874 95.0165 31.244 95.5351 32.5079C95.9782 33.5848 96.7219 34.5114 97.6773 35.177C98.6474 35.7931 99.7728 36.1202 100.922 36.1202C102.071 36.1202 103.196 35.7931 104.167 35.177V35.2117Z" fill="#0000EE"/>
<path d="M117.45 16.0079H124.182V40.9663H117.45V16.0079ZM132.744 22.296C132.4 21.8243 131.945 21.445 131.418 21.1922C130.892 20.9394 130.312 20.8208 129.728 20.847C128.926 20.8378 128.135 21.0351 127.43 21.42C126.726 21.8049 126.133 22.3644 125.707 23.0447C124.619 24.7733 124.087 26.7936 124.182 28.8337L122.886 26.3379C122.849 24.3368 123.248 22.3518 124.057 20.5212C124.768 18.9318 125.912 17.5745 127.357 16.6041C128.821 15.6629 130.533 15.1801 132.273 15.2175C133.865 15.1687 135.434 15.6117 136.765 16.4862C138.051 17.4112 139.033 18.6973 139.587 20.1815C140.278 22.0577 140.607 24.0479 140.558 26.0467V40.9663H133.805V26.3379C133.892 24.9118 133.521 23.4953 132.744 22.296Z" fill="#0000EE"/>
<path d="M142.707 16.0079H162.32V21.6443H142.707V16.0079ZM151.865 40.0927C150.661 39.5461 149.674 38.6144 149.058 37.4444C148.379 36.0567 148.053 34.5233 148.108 32.9796V7.97266H154.847V32.3279C154.789 32.7347 154.826 33.1494 154.956 33.5391C155.086 33.9289 155.305 34.2831 155.596 34.5736C155.886 34.8642 156.241 35.0831 156.63 35.2132C157.02 35.3432 157.435 35.3808 157.842 35.3229H162.334V40.9663H156.594C154.973 41.022 153.359 40.7239 151.865 40.0927Z" fill="#0000EE"/>
<path d="M165.266 16.0078H172.005V25.291L171.104 28.7574C171.06 26.4241 171.311 24.0946 171.852 21.8245C172.201 20.2198 172.958 18.7322 174.05 17.5053C174.496 17.036 175.034 16.6633 175.631 16.4105C176.227 16.1577 176.869 16.03 177.516 16.0355H182.113V21.672H178.016C176.765 21.6098 175.524 21.9159 174.445 22.5525C173.504 23.2222 172.833 24.2055 172.552 25.3256C172.115 27.044 171.921 28.8154 171.977 30.5877V40.987H165.238L165.266 16.0078Z" fill="#0000EE"/>
<path d="M188.429 40.0926C186.446 39.0077 184.813 37.3795 183.722 35.399C182.56 33.2759 181.975 30.8857 182.023 28.4661C181.986 26.0978 182.533 23.7568 183.618 21.6511C184.637 19.6917 186.187 18.0581 188.09 16.9367C190.047 15.7895 192.282 15.202 194.551 15.2382C196.821 15.194 199.058 15.7821 201.012 16.9367C202.9 18.0708 204.433 19.7112 205.436 21.6719C206.524 23.8186 207.071 26.1984 207.03 28.6048V30.5044H188.928C188.91 31.5297 189.177 32.5401 189.698 33.4231C190.22 34.2787 190.972 34.9706 191.868 35.4198C192.861 35.9063 193.958 36.1443 195.064 36.1131C196.188 36.1443 197.299 35.8712 198.281 35.3227C199.147 34.8327 199.818 34.059 200.181 33.1319L206.968 33.6311C206.803 34.8216 206.389 35.9638 205.752 36.983C205.116 38.0021 204.27 38.8752 203.273 39.5449C200.958 41.0875 198.218 41.8636 195.438 41.7634C192.998 41.8116 190.586 41.2365 188.429 40.0926ZM199.356 23.1208C198.878 22.3925 198.206 21.8134 197.414 21.45C196.507 21.0315 195.516 20.8252 194.516 20.8469C193.511 20.8275 192.513 21.0336 191.598 21.45C190.794 21.8086 190.109 22.388 189.622 23.1208C189.152 23.8572 188.911 24.7159 188.928 25.589H200.056C200.074 24.7148 199.83 23.8551 199.356 23.1208Z" fill="#0000EE"/>
<path d="M215.779 40.0925C213.782 39.0129 212.137 37.3842 211.037 35.3989C209.88 33.274 209.294 30.8851 209.338 28.466C209.3 26.0968 209.85 23.755 210.94 21.651C211.954 19.6898 213.501 18.0555 215.404 16.9366C217.356 15.7835 219.586 15.1865 221.852 15.2103C224.122 15.1662 226.359 15.7543 228.314 16.9089C230.199 18.044 231.729 19.6843 232.73 21.644C233.823 23.789 234.373 26.1697 234.331 28.5769V30.4765H216.306C216.286 31.5031 216.555 32.5145 217.082 33.3953C217.602 34.2526 218.355 34.9449 219.252 35.392C220.245 35.8793 221.342 36.1173 222.448 36.0853C223.582 36.1194 224.704 35.8437 225.693 35.288C226.557 34.7976 227.226 34.0237 227.586 33.0972L234.38 33.5963C234.214 34.7864 233.799 35.9282 233.163 36.9472C232.526 37.9661 231.682 38.8394 230.685 39.5101C228.368 41.0528 225.625 41.8289 222.843 41.7286C220.387 41.7964 217.955 41.233 215.779 40.0925ZM226.705 23.1207C226.225 22.3921 225.55 21.8132 224.757 21.4499C223.852 21.0319 222.863 20.8257 221.866 20.8468C220.858 20.8273 219.858 21.0334 218.94 21.4499C218.149 21.813 217.476 22.3921 216.999 23.1207C216.532 23.8532 216.291 24.7066 216.306 25.575H227.398C227.413 24.7066 227.172 23.8532 226.705 23.1207Z" fill="#0000EE"/>
<path d="M237.943 6.02441H244.682V40.9662H237.943V6.02441ZM248.079 40.363C246.584 39.4016 245.403 38.0229 244.682 36.3974C243.853 34.5381 243.444 32.519 243.483 30.4837V26.4903C243.444 24.4549 243.853 22.4359 244.682 20.5766C245.393 18.9429 246.577 17.5592 248.08 16.603C249.583 15.6468 251.338 15.1619 253.119 15.2105C255.122 15.1806 257.085 15.7742 258.735 16.9091C260.428 18.1007 261.765 19.7303 262.604 21.6234C263.561 23.7827 264.034 26.1254 263.99 28.487C264.034 30.8486 263.561 33.1912 262.604 35.3505C261.765 37.2437 260.428 38.8732 258.735 40.0649C257.083 41.1968 255.122 41.7901 253.119 41.7635C251.339 41.7978 249.587 41.311 248.079 40.363ZM254.166 35.1772C255.128 34.5109 255.88 33.5853 256.336 32.5081C256.874 31.2467 257.139 29.8857 257.113 28.5147C257.139 27.1437 256.874 25.7827 256.336 24.5214C255.885 23.434 255.132 22.4983 254.166 21.8245C253.198 21.2044 252.072 20.8749 250.922 20.8749C249.772 20.8749 248.646 21.2044 247.677 21.8245C246.712 22.4983 245.959 23.434 245.507 24.5214C244.973 25.7741 244.708 27.1253 244.731 28.487C244.701 29.8673 244.965 31.2382 245.507 32.5081C245.959 33.5955 246.712 34.5312 247.677 35.2049C248.647 35.821 249.773 36.1481 250.922 36.1481C252.071 36.1481 253.196 35.821 254.166 35.2049V35.1772Z" fill="#0000EE"/>
<path d="M270.937 40.4948C269.651 39.5716 268.671 38.2846 268.122 36.7995C267.425 34.9247 267.094 32.9338 267.145 30.9343V16.0078H273.884V30.6293C273.799 32.0591 274.176 33.4783 274.958 34.6781C275.306 35.1541 275.767 35.5354 276.3 35.7873C276.833 36.0392 277.42 36.1536 278.009 36.1201C278.811 36.1307 279.602 35.9347 280.306 35.551C281.01 35.1674 281.604 34.6089 282.03 33.9293C283.117 32.2008 283.65 30.1805 283.555 28.1404L284.851 30.6293C284.89 32.6304 284.49 34.6157 283.68 36.446C282.973 38.0377 281.828 39.3961 280.38 40.3631C278.917 41.3069 277.205 41.79 275.464 41.7496C273.862 41.8098 272.28 41.3713 270.937 40.4948ZM283.555 16.0078H290.294V40.9662H283.555V16.0078Z" fill="#0000EE"/>
<path d="M292.104 16.0079H311.724V21.6443H292.104V16.0079ZM301.262 40.0927C300.054 39.5469 299.061 38.6154 298.44 37.4444C297.764 36.056 297.44 34.5227 297.497 32.9796V7.97266H304.236V32.3279C304.178 32.7347 304.216 33.1494 304.346 33.5391C304.476 33.9289 304.695 34.2831 304.985 34.5736C305.276 34.8642 305.63 35.0831 306.02 35.2132C306.41 35.3432 306.824 35.3808 307.231 35.3229H311.724V40.9663H305.983C304.365 41.0208 302.754 40.7227 301.262 40.0927Z" fill="#0000EE"/>
<path d="M319.807 40.0926C317.811 39.013 316.165 37.3843 315.065 35.399C313.908 33.2741 313.323 30.8852 313.367 28.4661C313.328 26.0969 313.878 23.7551 314.968 21.6511C315.982 19.69 317.53 18.0556 319.433 16.9367C321.391 15.7905 323.626 15.203 325.894 15.2382C328.166 15.1938 330.406 15.7819 332.363 16.9367C334.246 18.0742 335.775 19.7139 336.779 21.6719C337.87 23.8174 338.418 26.1981 338.373 28.6048V30.5044H320.299C320.279 31.5309 320.548 32.5424 321.076 33.4231C321.594 34.2819 322.347 34.9747 323.246 35.4198C324.239 35.9072 325.336 36.1451 326.442 36.1131C327.576 36.1472 328.698 35.8716 329.687 35.3158C330.549 34.8233 331.217 34.0501 331.579 33.125L338.367 33.6242C338.202 34.8146 337.788 35.9569 337.151 36.9761C336.514 37.9952 335.669 38.8683 334.671 39.5379C332.357 41.0806 329.617 41.8567 326.837 41.7565C324.39 41.8097 321.971 41.237 319.807 40.0926ZM330.74 23.1209C330.26 22.3923 329.585 21.8133 328.792 21.45C327.885 21.0315 326.894 20.8252 325.894 20.8469C324.889 20.8276 323.891 21.0337 322.976 21.45C322.169 21.8065 321.481 22.3862 320.993 23.1209C320.523 23.8519 320.282 24.7063 320.299 25.5751H331.434C331.448 24.7068 331.207 23.8533 330.74 23.1209Z" fill="#0000EE"/>
<path d="M29.437 31.9743L33.2709 49.9998C29.4543 47.4491 26.3256 43.9964 24.1621 39.9477C21.9987 35.8989 20.8672 31.379 20.868 26.7885C20.868 27.0103 20.868 27.2322 20.868 27.4818C20.868 27.2599 20.868 27.0381 20.868 26.7885C20.8693 28.5285 20.7068 30.2647 20.3827 31.9743C19.6944 35.6203 18.2858 39.0924 16.2395 42.1875C14.1932 45.2825 11.5502 47.9384 8.46506 49.9998L12.2989 31.9743H0L15.6337 16.3406H4.49945L13.228 7.61211L15.3078 5.53225L18.6148 2.21833L20.8611 -0.0209961L23.1073 2.21833L26.4143 5.53225L28.4942 7.61211L37.2227 16.3406H26.0885L41.7221 31.9743H29.437Z" fill="#0000EE"/>
</svg>
