<svg width="276" height="116" viewBox="0 0 276 116" fill="none" xmlns="http://www.w3.org/2000/svg">
<path d="M8.16829 113.504C5.63058 112.093 3.55463 110.047 2.16916 107.592C0.743274 104.946 0 102.02 0 99.0506C0 96.0816 0.743274 93.1547 2.16916 90.5087C3.5454 88.0454 5.6233 85.9944 8.16829 84.5875C10.8045 83.1498 13.8033 82.4124 16.847 82.4532C19.4729 82.4128 22.0689 82.9836 24.4059 84.1153C26.5826 85.1936 28.4153 86.8008 29.7152 88.771C31.0971 90.8885 31.9042 93.2955 32.0648 95.7783L25.4458 96.2316C25.2377 93.8781 24.2473 91.647 22.6162 89.8571C21.8753 89.1224 20.9782 88.5441 19.984 88.16C18.9897 87.7759 17.9207 87.5947 16.847 87.6284C14.9729 87.601 13.1358 88.1222 11.5878 89.1205C9.99601 90.1615 8.72886 91.5866 7.91833 93.2474C7.00015 95.0953 6.54511 97.1183 6.58852 99.1592C6.54774 101.178 6.99934 103.178 7.90833 105.005C8.71188 106.644 9.96937 108.047 11.5478 109.066C13.1201 110.038 14.9683 110.535 16.847 110.492C18.2691 110.533 19.6756 110.203 20.9109 109.536C22.1462 108.869 23.1621 107.893 23.846 106.714C24.661 105.29 25.1962 103.738 25.4258 102.134L32.0448 102.587C31.8762 105.024 31.0688 107.384 29.6952 109.453C28.3798 111.41 26.5325 112.999 24.3459 114.052C22.0199 115.148 19.446 115.693 16.847 115.639C13.8027 115.684 10.8026 114.946 8.16829 113.504Z" fill="#0000EE"/>
<path d="M41.2152 114.1C39.3293 113.095 37.7806 111.609 36.7459 109.812C35.688 107.887 35.1357 105.749 35.1357 103.58C35.1357 101.41 35.688 99.2724 36.7459 97.3467C37.7808 95.5526 39.3297 94.0701 41.2152 93.0687C43.193 92.0587 45.4059 91.5298 47.6543 91.5298C49.9027 91.5298 52.1156 92.0587 54.0934 93.0687C55.9666 94.0789 57.5068 95.5597 58.5427 97.3467C59.5942 99.2743 60.1428 101.411 60.1428 103.58C60.1428 105.748 59.5942 107.885 58.5427 109.812C57.507 111.602 55.967 113.086 54.0934 114.1C52.1156 115.11 49.9027 115.639 47.6543 115.639C45.4059 115.639 43.193 115.11 41.2152 114.1ZM50.7838 109.652C51.7048 109.052 52.4206 108.212 52.8435 107.234C53.8038 104.886 53.8038 102.283 52.8435 99.9343C52.418 98.9525 51.6988 98.1091 50.7738 97.5073C49.842 96.9457 48.7597 96.6473 47.6543 96.6473C46.5489 96.6473 45.4666 96.9457 44.5348 97.5073C43.6155 98.1125 42.9004 98.9551 42.4751 99.9343C41.5148 102.283 41.5148 104.886 42.4751 107.234C42.9005 108.211 43.6158 109.05 44.5348 109.652C45.4644 110.219 46.5476 110.521 47.6543 110.521C48.761 110.521 49.8442 110.219 50.7738 109.652H50.7838Z" fill="#0000EE"/>
<path d="M63.5498 92.2466H70.0289V114.912H63.5498V92.2466ZM78.2577 97.9128C77.9272 97.4844 77.4893 97.1402 76.9832 96.911C76.4771 96.6819 75.9187 96.5751 75.3581 96.6001C74.5865 96.5918 73.8256 96.7707 73.1481 97.1195C72.4706 97.4684 71.8992 97.9757 71.4887 98.5928C70.4395 100.173 69.9299 102.019 70.0289 103.881L68.779 101.615C68.7401 99.795 69.1259 97.9894 69.9089 96.3263C70.5879 94.8804 71.6869 93.6459 73.0784 92.766C74.4966 91.9099 76.1555 91.4787 77.8377 91.5288C79.3689 91.4824 80.8778 91.8849 82.1571 92.681C83.3826 93.5227 84.3153 94.6897 84.8367 96.0335C85.5005 97.7374 85.816 99.5448 85.7666 101.36V114.912H79.2975V101.634C79.377 100.335 79.0124 99.0476 78.2577 97.96V97.9128Z" fill="#0000EE"/>
<path d="M87.835 92.2465H106.692V97.3744H87.835V92.2465ZM96.6437 114.118C95.4824 113.623 94.5264 112.78 93.9241 111.719C93.2764 110.456 92.9641 109.062 93.0142 107.659V84.9937H99.4933V107.111C99.4383 107.48 99.475 107.857 99.6002 108.21C99.7255 108.564 99.9361 108.885 100.215 109.149C100.494 109.413 100.835 109.611 101.209 109.73C101.583 109.848 101.982 109.883 102.373 109.831H106.692V114.949H101.173C99.6172 114.986 98.0716 114.703 96.6437 114.118Z" fill="#0000EE"/>
<path d="M109.523 92.2463H116.002V100.68L115.143 103.805C115.1 101.686 115.342 99.569 115.863 97.5065C116.194 96.0496 116.921 94.6991 117.972 93.5874C118.405 93.1579 118.926 92.8172 119.504 92.5865C120.082 92.3558 120.704 92.24 121.332 92.2463H125.751V97.3743H121.832C120.631 97.3164 119.439 97.5922 118.402 98.1676C117.491 98.7749 116.844 99.6744 116.582 100.698C116.161 102.262 115.972 103.874 116.022 105.486V114.93H109.543L109.523 92.2463Z" fill="#0000EE"/>
<path d="M131.829 114.118C129.911 113.138 128.329 111.661 127.27 109.859C126.158 107.918 125.596 105.739 125.64 103.532C125.603 101.381 126.132 99.2558 127.18 97.3463C128.154 95.5635 129.645 94.0796 131.479 93.0683C133.363 92.0321 135.509 91.4999 137.688 91.529C139.845 91.5028 141.968 92.0352 143.827 93.0683C145.64 94.1034 147.111 95.5945 148.077 97.3746C149.124 99.3247 149.649 101.487 149.607 103.674V105.392H132.279C132.258 106.325 132.514 107.244 133.019 108.046C133.516 108.828 134.241 109.458 135.109 109.859C136.061 110.31 137.114 110.537 138.178 110.52C139.269 110.55 140.347 110.299 141.298 109.793C142.127 109.344 142.769 108.641 143.118 107.801L149.647 108.254C149.491 109.334 149.094 110.371 148.482 111.296C147.87 112.221 147.057 113.012 146.097 113.618C143.872 115.024 141.234 115.731 138.558 115.639C136.215 115.676 133.9 115.153 131.829 114.118ZM142.348 98.7062C141.882 98.0509 141.235 97.5283 140.478 97.1952C139.604 96.8144 138.65 96.6271 137.688 96.6475C136.72 96.6295 135.76 96.8166 134.879 97.1952C134.11 97.5199 133.455 98.0438 132.989 98.7062C132.535 99.3762 132.302 100.158 132.319 100.954H143.018C143.018 100.155 142.772 99.3739 142.308 98.7062H142.348Z" fill="#0000EE"/>
<path d="M158.095 114.118C156.177 113.138 154.595 111.661 153.536 109.859C152.419 107.92 151.857 105.739 151.906 103.532C151.87 101.383 152.396 99.2581 153.436 97.3463C154.416 95.5674 155.906 94.0849 157.735 93.0683C159.619 92.032 161.765 91.4999 163.945 91.529C166.128 91.4889 168.281 92.0218 170.164 93.0683C171.978 94.101 173.45 95.5927 174.413 97.3746C175.46 99.3247 175.985 101.487 175.943 103.674V105.392H158.575C158.559 106.324 158.815 107.243 159.315 108.046C159.817 108.825 160.541 109.453 161.405 109.859C162.357 110.309 163.41 110.536 164.474 110.52C165.565 110.55 166.644 110.299 167.594 109.793C168.426 109.344 169.071 108.642 169.424 107.801L175.943 108.254C175.787 109.334 175.39 110.371 174.778 111.296C174.167 112.221 173.354 113.012 172.393 113.618C170.172 115.025 167.537 115.732 164.864 115.639C162.508 115.684 160.178 115.161 158.095 114.118ZM168.604 98.7062C168.141 98.0489 167.493 97.5258 166.734 97.1952C165.861 96.8135 164.907 96.6261 163.945 96.6475C162.98 96.6283 162.022 96.8155 161.145 97.1952C160.374 97.5197 159.715 98.0435 159.245 98.7062C158.791 99.3762 158.558 100.158 158.575 100.954H169.274C169.291 100.158 169.058 99.3762 168.604 98.7062Z" fill="#0000EE"/>
<path d="M179.403 83.1807H185.882V114.912H179.403V83.1807ZM189.152 114.345C187.715 113.467 186.579 112.214 185.882 110.738C185.085 109.048 184.692 107.213 184.733 105.364V101.738C184.693 99.8884 185.085 98.0537 185.882 96.3641C186.582 94.8921 187.718 93.6426 189.152 92.7661C190.6 91.9072 192.282 91.4673 193.991 91.5006C195.916 91.4722 197.803 92.0101 199.39 93.0399C201.024 94.1148 202.311 95.5954 203.11 97.318C204 99.2883 204.46 101.408 204.46 103.551C204.46 105.693 204 107.813 203.11 109.784C202.312 111.509 201.024 112.993 199.39 114.071C197.803 115.101 195.916 115.639 193.991 115.611C192.286 115.647 190.605 115.218 189.152 114.373V114.345ZM195.001 109.623C195.932 109.014 196.657 108.165 197.091 107.177C198.078 104.849 198.078 102.252 197.091 99.9244C196.652 98.9393 195.928 98.0914 195.001 97.4785C194.069 96.9169 192.987 96.6185 191.882 96.6185C190.776 96.6185 189.694 96.9169 188.762 97.4785C187.835 98.0914 187.111 98.9393 186.672 99.9244C185.685 102.252 185.685 104.849 186.672 107.177C187.106 108.165 187.831 109.014 188.762 109.623C189.692 110.19 190.775 110.492 191.882 110.492C192.988 110.492 194.071 110.19 195.001 109.623Z" fill="#0000EE"/>
<path d="M211.128 114.486C209.887 113.649 208.942 112.477 208.419 111.124C207.747 109.422 207.428 107.614 207.479 105.798V92.2461H213.958V105.533C213.865 106.825 214.216 108.11 214.958 109.198C215.29 109.627 215.729 109.973 216.237 110.203C216.745 110.434 217.305 110.543 217.867 110.52C218.637 110.526 219.396 110.347 220.072 109.998C220.747 109.649 221.317 109.143 221.727 108.527C222.777 106.958 223.29 105.121 223.197 103.267L224.436 105.533C224.476 107.349 224.094 109.151 223.317 110.813C222.634 112.256 221.536 113.49 220.147 114.373C218.738 115.228 217.092 115.668 215.418 115.638C213.897 115.677 212.4 115.275 211.128 114.486ZM223.227 92.2461H229.696V114.911H223.227V92.2461Z" fill="#0000EE"/>
<path d="M231.475 92.2465H250.342V97.3744H231.475V92.2465ZM240.283 114.118C239.123 113.626 238.169 112.781 237.574 111.719C236.916 110.459 236.6 109.063 236.654 107.659V84.9937H243.143V107.111C243.111 107.478 243.158 107.848 243.28 108.199C243.402 108.549 243.597 108.873 243.853 109.151C244.453 109.639 245.233 109.883 246.023 109.831H250.342V114.949H244.813C243.257 114.986 241.711 114.703 240.283 114.118Z" fill="#0000EE"/>
<path d="M258.113 114.118C256.194 113.138 254.612 111.66 253.554 109.859C252.437 107.92 251.875 105.739 251.924 103.532C251.888 101.383 252.413 99.258 253.454 97.3462C254.433 95.5673 255.923 94.0847 257.753 93.0682C259.639 92.0303 261.789 91.498 263.972 91.5288C266.153 91.49 268.302 92.0229 270.181 93.0682C271.998 94.0981 273.471 95.5906 274.431 97.3745C275.481 99.3238 276.01 101.487 275.97 103.674V105.392H258.593C258.576 106.324 258.832 107.243 259.333 108.046C259.837 108.823 260.56 109.451 261.422 109.859C262.375 110.309 263.428 110.536 264.492 110.52C265.583 110.55 266.661 110.299 267.612 109.793C268.446 109.347 269.092 108.644 269.441 107.8L275.97 108.254C275.811 109.334 275.411 110.371 274.797 111.295C274.184 112.219 273.371 113.011 272.411 113.618C270.19 115.026 267.555 115.733 264.882 115.639C262.525 115.684 260.196 115.161 258.113 114.118ZM268.621 98.7061C268.158 98.0488 267.511 97.5257 266.752 97.1951C265.882 96.8144 264.931 96.6271 263.972 96.6473C263.004 96.6271 262.043 96.8143 261.163 97.1951C260.391 97.5196 259.733 98.0434 259.263 98.7061C258.809 99.376 258.575 100.158 258.593 100.954H269.291C269.309 100.158 269.076 99.376 268.621 98.7061Z" fill="#0000EE"/>
<path d="M150.296 43.5546L155.825 68.1084C150.321 64.6339 145.809 59.9308 142.688 54.4157C139.568 48.9006 137.937 42.7437 137.938 36.4907C137.938 36.7929 137.938 37.0951 137.938 37.435C137.938 37.1328 137.938 36.8306 137.938 36.4907C137.937 42.7455 136.302 48.9034 133.178 54.4186C130.054 59.9339 125.538 64.6361 120.03 68.1084L125.559 43.5546H107.832L130.379 22.2589H114.331L126.919 10.3881L129.919 7.555L134.688 3.04089L137.908 0L141.147 3.05033L145.957 7.555L148.956 10.3881L161.524 22.2589H145.467L168.013 43.5546H150.296Z" fill="#0000EE"/>
</svg>
