<svg width="100" height="120" viewBox="0 0 100 120" fill="none" xmlns="http://www.w3.org/2000/svg">
<path d="M70.555 76.7388L79.7441 120C70.5962 113.878 63.0974 105.592 57.912 95.8749C52.7266 86.1578 50.0147 75.3102 50.0166 64.2928C50.0166 64.8253 50.0166 65.3577 50.0166 65.9567C50.0166 65.4243 50.0166 64.8918 50.0166 64.2928C50.0197 68.4688 49.6302 72.6358 48.8534 76.7388C47.2037 85.4891 43.8277 93.8222 38.923 101.25C34.0184 108.679 27.6835 115.053 20.2891 120L29.4782 76.7388H0L37.4709 39.218H10.7843L31.7049 18.3028L36.6899 13.3111L44.6162 5.35774L49.9668 0L55.3506 5.37438L63.3433 13.3111L68.3283 18.3028L89.2157 39.218H62.5291L100 76.7388H70.555Z" fill="#0000EE"/>
</svg>
